<mxfile host="app.diagrams.net" modified="2024-05-20T07:50:40.117Z" agent="Mozilla/5.0 (Windows NT 10.0; Win64; x64) AppleWebKit/537.36 (KHTML, like Gecko) Chrome/123.0.0.0 Safari/537.36 Edg/123.0.0.0" version="24.4.4" etag="HXpFupDNYcduPW9vobRv" type="github">
  <diagram name="第 1 页" id="d8E3FYGf_OPFvihG8GeY">
    <mxGraphModel>
      <root>
        <mxCell id="0" />
        <mxCell id="1" parent="0" />
      </root>
    </mxGraphModel>
  </diagram>
</mxfile>
